HIERARCHY
ROOT Hips
{
	OFFSET 0.000000 0.000000 0.000000
	CHANNELS 6 Xposition Yposition Zposition Xrotation Yrotation Zrotation
	JOINT LeftUpLeg_virtual
	{
		OFFSET 0.000000 0.000000 0.000000
		CHANNELS 3 Xrotation Yrotation Zrotation
		JOINT LeftUpLeg
		{
			OFFSET 15.427100 -6.655098 0.678600
			CHANNELS 3 Xrotation Yrotation Zrotation
			JOINT LeftLeg
			{
				OFFSET 4.081073 -39.591068 13.024000
				CHANNELS 3 Xrotation Yrotation Zrotation
				JOINT LeftFoot
				{
					OFFSET -4.081074 -37.707932 -15.979700
					CHANNELS 3 Xrotation Yrotation Zrotation
					JOINT LeftToeBase
					{
						OFFSET 5.346399 -15.068900 20.645000
						CHANNELS 3 Xrotation Yrotation Zrotation
						JOINT LeftToe_End
						{
							OFFSET 2.754700 0.931300 11.300900
							CHANNELS 3 Xrotation Yrotation Zrotation
							End Site
							{
								OFFSET 0 0 0
							}
						}
					}
				}
			}
		}
	}
	JOINT RightUpLeg_virtual
	{
		OFFSET 0.000000 0.000000 0.000000
		CHANNELS 3 Xrotation Yrotation Zrotation
		JOINT RightUpLeg
		{
			OFFSET -15.569500 -6.655098 0.678600
			CHANNELS 3 Xrotation Yrotation Zrotation
			JOINT RightLeg
			{
				OFFSET -4.081825 -39.591045 13.023800
				CHANNELS 3 Xrotation Yrotation Zrotation
				JOINT RightFoot
				{
					OFFSET 4.081824 -37.707954 -15.979600
					CHANNELS 3 Xrotation Yrotation Zrotation
					JOINT RightToeBase
					{
						OFFSET -5.346400 -15.068900 20.645000
						CHANNELS 3 Xrotation Yrotation Zrotation
						JOINT RightToe_End
						{
							OFFSET -2.754700 0.931300 11.300900
							CHANNELS 3 Xrotation Yrotation Zrotation
							End Site
							{
								OFFSET 0 0 0
							}
						}
					}
				}
			}
		}
	}
	JOINT Spine_virtual
	{
		OFFSET 0.000000 0.000000 0.000000
		CHANNELS 3 Xrotation Yrotation Zrotation
		JOINT Spine
		{
			OFFSET -0.279200 12.230698 -2.892100
			CHANNELS 3 Xrotation Yrotation Zrotation
			JOINT Spine1
			{
				OFFSET -0.232667 10.192268 -1.242267
				CHANNELS 3 Xrotation Yrotation Zrotation
				JOINT Spine1_split
				{
					OFFSET -0.232667 10.192268 -1.242267
					CHANNELS 3 Xrotation Yrotation Zrotation
					JOINT Spine2
					{
						OFFSET -0.232667 10.192268 -1.242267
						CHANNELS 3 Xrotation Yrotation Zrotation
						JOINT Neck_virtual
						{
							OFFSET 0.000000 0.000000 0.000000
							CHANNELS 3 Xrotation Yrotation Zrotation
							JOINT Neck
							{
								OFFSET -0.418800 17.814194 8.416900
								CHANNELS 3 Xrotation Yrotation Zrotation
								JOINT Head
								{
									OFFSET 0.000000 7.031097 3.806800
									CHANNELS 3 Xrotation Yrotation Zrotation
									JOINT HeadTop_End
									{
										OFFSET 0.000000 24.646606 12.978600
										CHANNELS 3 Xrotation Yrotation Zrotation
										End Site
										{
											OFFSET 0 0 0
										}
									}
								}
							}
						}
						JOINT LeftShoulder_virtual
						{
							OFFSET 0.000000 0.000000 0.000000
							CHANNELS 3 Xrotation Yrotation Zrotation
							JOINT LeftShoulder
							{
								OFFSET 8.476499 7.247704 -3.868750
								CHANNELS 3 Xrotation Yrotation Zrotation
								JOINT LeftShoulder_split
								{
									OFFSET 8.476499 7.247704 -3.868750
									CHANNELS 3 Xrotation Yrotation Zrotation
									JOINT LeftArm
									{
										OFFSET 9.308998 -2.777710 0.208600
										CHANNELS 3 Xrotation Yrotation Zrotation
										JOINT LeftForeArm
										{
											OFFSET 29.972298 0.000000 0.000000
											CHANNELS 3 Xrotation Yrotation Zrotation
											JOINT LeftHand
											{
												OFFSET 26.026505 0.000000 0.000000
												CHANNELS 3 Xrotation Yrotation Zrotation
												End Site
												{
													OFFSET 0 0 0
												}
											}
										}
									}
								}
							}
						}
						JOINT RightShoulder_virtual
						{
							OFFSET 0.000000 0.000000 0.000000
							CHANNELS 3 Xrotation Yrotation Zrotation
							JOINT RightShoulder
							{
								OFFSET -7.570500 7.247704 -3.868750
								CHANNELS 3 Xrotation Yrotation Zrotation
								JOINT RightShoulder_split
								{
									OFFSET -7.570500 7.247704 -3.868750
									CHANNELS 3 Xrotation Yrotation Zrotation
									JOINT RightArm
									{
										OFFSET -9.308998 -2.777710 0.208500
										CHANNELS 3 Xrotation Yrotation Zrotation
										JOINT RightForeArm
										{
											OFFSET -29.972300 0.000000 0.000000
											CHANNELS 3 Xrotation Yrotation Zrotation
											JOINT RightHand
											{
												OFFSET -26.026505 0.000000 0.000000
												CHANNELS 3 Xrotation Yrotation Zrotation
												End Site
												{
													OFFSET 0 0 0
												}
											}
										}
									}
								}
							}
						}
					}
				}
			}
		}
	}
}
MOTION
Frames: 9
Frame Time: 0.03333333
0.431697 77.301414 1.546730 0.000000 0.000000 0.000000 -5.287325 -52.938290 0.698373 -29.371979 7.712290 17.699429 52.260137 -3.940723 3.335539 -23.739716 -8.303452 -15.850596 -1.661097 -0.305529 -1.135597 0.000000 0.000000 0.000000 -6.451966 -47.599909 1.350826 -19.951835 -10.222068 -34.420349 52.903896 -13.329197 -15.160925 -29.746905 -7.105147 23.496375 1.409409 1.959747 0.874639 0.000000 0.000000 0.000000 -4.276614 -51.230572 1.713339 10.161268 7.267066 -1.778719 1.934513 1.097521 -0.715083 0.300846 -0.663472 0.787313 0.000000 0.000000 0.000000 2.865835 1.154491 -0.642083 -0.891154 13.259113 3.391463 8.800158 20.280913 -4.132526 0.000000 0.000000 0.000000 3.704345 0.984768 -0.781866 1.625725 2.876968 -12.049697 -2.713076 0.761201 -0.225346 -52.055324 2.212324 -50.086873 -178.660728 -74.282761 -178.558985 0.000000 0.000000 0.000000 3.915121 1.279476 -0.597594 3.473130 11.565481 -6.050080 -2.469250 2.084220 0.449394 -49.417071 27.353398 87.247361 -173.374353 71.765631 171.188897 0.000000 0.000000 0.000000 
0.210855 77.658409 1.999149 0.000000 0.000000 0.000000 -5.026491 -52.689066 0.947713 -29.188701 8.179131 17.574207 51.520650 -4.213024 3.311219 -24.036908 -8.676881 -16.158146 -1.920042 -0.292630 -0.841795 0.000000 0.000000 0.000000 -6.185597 -47.909897 1.603740 -19.899287 -10.623463 -34.898838 52.720980 -13.093077 -14.858289 -28.830816 -6.020322 21.263578 1.386894 1.995906 1.539474 0.000000 0.000000 0.000000 -3.148459 -50.733672 2.528422 9.931265 7.406579 -1.868939 2.047292 1.164299 -0.802200 0.477311 -0.658736 0.697489 0.000000 0.000000 0.000000 2.885981 1.225801 -0.776825 -0.787333 13.220296 3.201697 9.069993 20.207451 -4.036717 0.000000 0.000000 0.000000 3.890351 1.006927 -0.848057 1.555824 2.314150 -11.474212 -2.886511 0.800565 -0.269058 -52.679227 2.763560 -49.926084 -179.142980 -75.127846 -178.896260 0.000000 0.000000 0.000000 4.061174 1.326540 -0.718629 3.550033 11.831882 -5.732148 -2.952802 2.772790 0.718545 -49.966553 27.876621 87.302583 -173.928363 72.047233 171.938715 0.000000 0.000000 0.000000 
-0.164064 78.444824 2.360985 0.000000 0.000000 0.000000 -4.394994 -51.770624 1.614146 -28.714682 8.429560 17.339747 50.266596 -4.608012 3.325834 -24.116252 -9.606410 -16.549133 -2.327621 -0.278238 -0.291516 0.000000 0.000000 0.000000 -5.588129 -47.874363 2.340111 -20.873763 -9.812726 -36.318803 53.411075 -12.038019 -14.223773 -24.947172 -3.906932 20.093161 -2.526750 1.805127 2.991605 0.000000 0.000000 0.000000 -1.796666 -49.472143 3.631778 9.745912 7.672888 -2.135705 2.113250 1.381973 -0.979512 0.479149 -0.720454 0.634778 0.000000 0.000000 0.000000 2.842985 1.401478 -0.992074 -0.507579 13.130794 2.741305 9.389578 19.674286 -3.688208 0.000000 0.000000 0.000000 3.856332 1.169021 -1.040283 1.475580 1.247293 -10.823872 -2.730562 0.535296 -0.542974 -54.786757 3.397043 -48.660416 -179.712113 -75.127832 -179.253493 0.000000 0.000000 0.000000 4.107434 1.467799 -0.939647 3.649823 12.352455 -5.424779 -3.038186 2.545565 0.777826 -51.670402 27.655122 87.316483 -174.257319 72.723456 172.544649 0.000000 0.000000 0.000000 
-0.695551 79.474564 2.620762 0.000000 0.000000 0.000000 -3.534798 -50.230188 2.448258 -28.104920 8.420390 17.153368 48.616347 -4.915194 3.326135 -24.001493 -10.866567 -16.761291 -2.616071 -0.255700 0.268757 0.000000 0.000000 0.000000 -4.668266 -47.111592 3.313513 -22.177462 -8.114879 -38.027164 54.258340 -10.415776 -13.583798 -20.141113 -1.466674 19.288854 -7.799203 1.301664 4.770919 0.000000 0.000000 0.000000 -0.612246 -47.653356 4.633106 9.628926 7.943209 -2.467545 2.104980 1.646062 -1.148771 0.252544 -0.845866 0.713959 0.000000 0.000000 0.000000 2.781501 1.608341 -1.170854 -0.138148 13.038921 2.126113 9.665806 18.798888 -3.132569 0.000000 0.000000 0.000000 3.621490 1.395378 -1.237772 1.421235 -0.162363 -10.143255 -2.461583 -0.001225 -0.991827 -58.052619 4.043508 -46.342909 179.957658 -74.313565 -179.338556 0.000000 0.000000 0.000000 4.007500 1.640548 -1.143325 3.748720 13.030166 -5.263404 -2.997798 1.523769 0.685409 -54.621013 26.605122 87.353543 -174.346835 73.944133 172.890270 0.000000 0.000000 0.000000 
-1.280114 80.547371 2.761658 0.000000 0.000000 0.000000 -2.640254 -48.233491 3.160139 -27.609368 8.275755 17.185762 46.729603 -4.982366 3.348828 -23.871282 -12.193527 -16.616991 -2.649962 -0.216278 0.577875 0.000000 0.000000 0.000000 -3.807278 -45.718855 4.037558 -23.510437 -6.275971 -39.343300 55.016453 -9.099596 -12.918591 -16.127180 0.301900 17.736388 -10.261172 0.759122 6.287962 0.000000 0.000000 0.000000 0.345414 -45.577692 5.292068 9.551595 8.135329 -2.683597 2.026404 1.846386 -1.211565 0.073694 -0.838874 0.786066 0.000000 0.000000 0.000000 2.705459 1.758233 -1.202558 0.194081 12.921763 1.559609 9.822416 17.800118 -2.439433 0.000000 0.000000 0.000000 3.262940 1.597489 -1.311794 1.415437 -1.765150 -9.521074 -2.344176 -0.487137 -1.408769 -62.130222 4.472416 -43.326041 179.795728 -73.004784 -179.292985 0.000000 0.000000 0.000000 3.771986 1.767018 -1.208394 3.841781 13.809084 -5.299040 -3.018633 0.409227 0.419081 -58.770301 24.793397 87.508568 -173.971175 75.793762 172.659491 0.000000 0.000000 0.000000 
-1.972832 81.443359 2.933937 0.000000 0.000000 0.000000 -1.924013 -46.009271 3.514526 -27.220302 8.146794 17.550916 44.941412 -4.956956 3.496366 -23.684752 -13.367420 -16.442738 -2.559426 -0.152995 0.537861 0.000000 0.000000 0.000000 -3.414094 -43.867921 4.239154 -24.741110 -5.050481 -40.020056 55.612578 -8.512314 -12.015762 -13.470472 0.554039 15.490517 -8.562380 0.497241 7.134904 0.000000 0.000000 0.000000 0.913299 -43.458831 5.465470 9.457685 8.182180 -2.682159 1.903786 1.886852 -1.129029 0.240539 -0.717195 0.870878 0.000000 0.000000 0.000000 2.637520 1.781415 -1.054423 0.397793 12.791000 1.246971 9.872518 16.886007 -1.711245 0.000000 0.000000 0.000000 2.871095 1.707239 -1.208382 1.451235 -3.498661 -9.059571 -2.237095 -0.859864 -1.735078 -66.284978 4.459539 -40.153087 179.737056 -71.729690 -179.211760 0.000000 0.000000 0.000000 3.478367 1.804696 -1.083765 3.926446 14.547845 -5.532179 -3.106438 -0.257274 -0.084594 -63.667123 22.505029 87.960809 -172.859657 78.261974 171.557659 0.000000 0.000000 0.000000 
-2.928445 82.000435 3.119331 0.000000 0.000000 0.000000 -1.514280 -43.858147 3.463961 -26.968126 8.172017 18.314778 43.552220 -4.886109 3.745488 -23.472162 -14.251815 -16.541233 -2.462942 -0.081528 0.150430 0.000000 0.000000 0.000000 -3.470191 -41.741465 3.930990 -25.767582 -4.789122 -40.221048 55.858349 -8.451403 -10.931408 -12.185193 -0.715821 13.774392 -5.392559 0.484229 6.966967 0.000000 0.000000 0.000000 1.184380 -41.519115 5.217624 9.300155 8.148135 -2.427253 1.781508 1.770721 -0.937148 0.518950 -0.483686 0.926258 0.000000 0.000000 0.000000 2.578058 1.683334 -0.772844 0.432652 12.664152 1.267136 9.863559 16.197237 -1.008590 0.000000 0.000000 0.000000 2.563146 1.691077 -0.963342 1.537710 -5.158930 -8.848906 -2.000890 -1.100645 -1.845534 -69.685722 3.957910 -37.474311 179.529624 -70.975241 -179.413879 0.000000 0.000000 0.000000 3.175419 1.732788 -0.834161 4.001603 15.096263 -5.947804 -3.274192 -0.415274 -0.528515 -68.505841 20.224648 88.622558 -170.404040 81.085246 169.033959 0.000000 0.000000 0.000000 
-4.112814 82.191086 2.959137 0.000000 0.000000 0.000000 -1.532135 -41.864883 3.077794 -26.904986 8.471466 19.439961 42.847652 -4.912266 4.115865 -23.263797 -14.830709 -17.306082 -2.652331 -0.006149 -0.366207 0.000000 0.000000 0.000000 -3.969107 -39.881983 3.269711 -26.184085 -5.287798 -39.992031 55.254260 -8.686303 -10.108578 -12.016504 -3.051704 13.254318 -3.211762 0.563077 5.721360 0.000000 0.000000 0.000000 1.217809 -40.097312 4.743700 9.093452 8.076701 -1.939364 1.690456 1.563628 -0.742192 0.730984 -0.270963 0.999001 0.000000 0.000000 0.000000 2.533265 1.508255 -0.489810 0.305375 12.562473 1.600772 9.795664 15.886557 -0.380854 0.000000 0.000000 0.000000 2.370617 1.582456 -0.699232 1.639108 -6.627811 -9.005133 -1.902415 -1.224873 -1.800626 -71.659620 3.043709 -35.789915 179.119826 -71.127575 -179.930747 0.000000 0.000000 0.000000 2.956883 1.585058 -0.589264 4.049486 15.307123 -6.484138 -3.359503 -0.193701 -0.773544 -72.308310 18.404754 89.402375 -165.353265 83.861158 163.897274 0.000000 0.000000 0.000000 
-5.503522 81.924049 2.590069 0.000000 0.000000 0.000000 -2.037042 -40.227690 2.550705 -26.859835 9.057474 20.796497 42.837389 -5.085950 4.591813 -23.339147 -15.113851 -18.735243 -3.080925 0.015008 -0.713837 0.000000 0.000000 0.000000 -4.716746 -38.629999 2.594140 -25.672301 -6.064528 -39.551208 53.761481 -9.011994 -9.777080 -12.552795 -5.808464 13.540398 -1.458904 0.741152 3.914195 0.000000 0.000000 0.000000 0.929679 -39.334639 4.277609 8.895418 8.020140 -1.387084 1.657186 1.353345 -0.661620 0.811371 -0.346458 0.937528 0.000000 0.000000 0.000000 2.516833 1.334532 -0.347164 0.069014 12.510129 2.088526 9.719608 15.943830 0.123359 0.000000 0.000000 0.000000 2.321356 1.439302 -0.558601 1.707625 -7.728685 -9.537499 -1.900298 -1.427431 -1.722418 -71.963379 2.072161 -35.105202 178.652436 -72.233840 179.462169 0.000000 0.000000 0.000000 2.878215 1.425990 -0.482840 4.059556 15.103370 -7.119271 -3.300717 0.158653 -0.825205 -74.231234 17.414551 90.064316 -154.909811 86.220729 153.400598 0.000000 0.000000 0.000000 
